<svg width="407" height="407" xmlns="http://www.w3.org/2000/svg" xmlns:xlink="http://www.w3.org/1999/xlink" xml:space="preserve" overflow="hidden"><defs><clipPath id="clip0"><rect x="112" y="134" width="407" height="407"/></clipPath></defs><g clip-path="url(#clip0)" transform="translate(-112 -134)"><path d="M485.083 220.911C485.083 223.782 484.035 226.266 481.937 228.364L434.241 276.059C432.143 278.157 429.659 279.206 426.789 279.206 423.588 279.206 420.938 277.991 418.84 275.562L335.704 358.698 347.297 358.698C350.167 358.698 352.651 359.746 354.749 361.844 356.848 363.943 357.896 366.427 357.896 369.297L357.896 390.495C357.896 394.912 357.068 399.052 355.412 402.915 353.756 406.779 351.492 410.148 348.622 413.018 345.752 415.888 342.383 418.151 338.52 419.808 334.656 421.464 330.516 422.292 326.099 422.292 323.229 422.292 320.745 423.34 318.647 425.438 316.548 427.536 315.5 430.021 315.5 432.891 315.5 443.158 313.567 452.764 309.704 461.707 305.84 470.649 300.54 478.544 293.805 485.389 287.07 492.233 279.232 497.533 270.289 501.287 261.346 505.041 251.685 506.972 241.307 507.083 228.169 507.083 215.804 504.599 204.211 499.631 192.618 494.663 182.516 487.818 173.905 479.095 165.293 470.373 158.503 460.271 153.535 448.789 148.566 437.307 146.027 424.941 145.917 411.693 145.917 401.425 147.849 391.82 151.713 382.877 155.577 373.934 160.877 366.039 167.611 359.195 174.346 352.35 182.185 347.051 191.128 343.296 200.071 339.542 209.731 337.611 220.109 337.5 222.98 337.5 225.464 336.452 227.562 334.353 229.66 332.256 230.708 329.772 230.708 326.901 230.708 321.05 231.812 315.585 234.021 310.506 236.229 305.427 239.265 300.9 243.129 296.926 246.993 292.951 251.465 289.915 256.543 287.817 261.622 285.72 267.142 284.616 273.104 284.505 280.391 284.505 287.015 286.161 292.977 289.473 298.939 292.786 304.018 297.423 308.213 303.385L377.438 234.16C375.008 232.062 373.794 229.413 373.794 226.211 373.794 223.34 374.843 220.856 376.941 218.759L424.636 171.063C426.734 168.966 429.219 167.917 432.089 167.917 434.959 167.917 437.443 168.966 439.541 171.063L481.937 213.459C484.035 215.557 485.083 218.041 485.083 220.911ZM336.698 379.896 310.201 379.896C307.33 379.896 304.846 378.848 302.748 376.749L276.251 350.252C274.153 348.154 273.104 345.669 273.104 342.799 273.104 339.93 274.153 337.445 276.251 335.347L292.646 318.952C291.1 314.977 288.561 311.776 285.028 309.346 281.495 306.918 277.52 305.703 273.104 305.703 270.123 305.703 267.363 306.255 264.824 307.359 262.284 308.463 260.076 309.954 258.199 311.831 256.323 313.707 254.777 315.971 253.562 318.621 252.348 321.27 251.796 324.031 251.906 326.901 251.906 331.317 251.078 335.458 249.422 339.322 247.766 343.185 245.503 346.554 242.632 349.424 239.762 352.294 236.394 354.558 232.53 356.214 228.666 357.87 224.526 358.698 220.109 358.698 212.823 358.698 205.977 360.077 199.574 362.838 193.17 365.599 187.54 369.408 182.682 374.265 177.824 379.122 174.015 384.753 171.255 391.157 168.495 397.561 167.115 404.406 167.115 411.693 167.115 421.96 169.047 431.566 172.911 440.509 176.775 449.451 182.075 457.29 188.809 464.025 195.544 470.76 203.383 476.06 212.326 479.924 221.269 483.787 230.929 485.774 241.307 485.885 248.594 485.885 255.439 484.506 261.843 481.745 268.246 478.984 273.822 475.232 278.569 470.484 283.317 465.736 287.126 460.105 289.996 453.592 292.867 447.078 294.302 440.177 294.302 432.891 294.302 428.474 295.13 424.334 296.786 420.47 298.442 416.606 300.706 413.238 303.576 410.368 306.447 407.498 309.814 405.234 313.678 403.578 317.542 401.922 321.682 401.094 326.099 401.094 328.969 401.094 331.453 400.045 333.551 397.947 335.65 395.849 336.698 393.365 336.698 390.495L336.698 379.896ZM310.201 354.392 403.935 260.658 392.342 249.065 298.608 342.799 310.201 354.392ZM426.789 253.702 459.58 220.911 432.089 193.42 399.298 226.211 426.789 253.702ZM204.708 411.196 219.613 396.291 256.709 433.387 241.804 448.292 204.708 411.196ZM236.505 379.399 251.409 364.494 288.506 401.591 273.601 416.495 236.505 379.399Z" stroke="#4472C4" stroke-width="0.165609" fill="#4472C4"/></g></svg>